<svg width="31" height="31" viewBox="0 0 31 31" fill="none" xmlns="http://www.w3.org/2000/svg">
<defs>
<linearGradient id="paint0_linear" x1="3.98102e-10" y1="15.5" x2="31" y2="15.5" gradientUnits="userSpaceOnUse">
<stop stop-color="#5C6DC6"/>
<stop offset="1" stop-color="#161D43"/>
</linearGradient>
<linearGradient id="paint1_linear" x1="21.8285" y1="9.17144" x2="2.27201" y2="28.7279" gradientUnits="userSpaceOnUse">
<stop stop-color="#AB7FF3"/>
<stop offset="1" stop-color="#1D2850"/>
</linearGradient>
<linearGradient id="paint2_linear" x1="13.4118" y1="4.01754" x2="17.984" y2="8.58963" gradientUnits="userSpaceOnUse">
<stop stop-color="#FFD945"/>
<stop offset="0.2531" stop-color="#FFD442"/>
<stop offset="0.557" stop-color="#FFC539"/>
<stop offset="0.8857" stop-color="#FFAD2B"/>
<stop offset="1" stop-color="#FFA325"/>
</linearGradient>
<linearGradient id="paint3_linear" x1="17.9475" y1="8.46236" x2="13.6311" y2="4.146" gradientUnits="userSpaceOnUse">
<stop stop-color="#FFD945"/>
<stop offset="0.2531" stop-color="#FFD442"/>
<stop offset="0.557" stop-color="#FFC539"/>
<stop offset="0.8857" stop-color="#FFAD2B"/>
<stop offset="1" stop-color="#FFA325"/>
</linearGradient>
<linearGradient id="paint4_linear" x1="17.6151" y1="8.03716" x2="14.0482" y2="4.47027" gradientUnits="userSpaceOnUse">
<stop stop-color="#E87264" stop-opacity="0"/>
<stop offset="1" stop-color="#FF7044"/>
</linearGradient>
<linearGradient id="paint5_linear" x1="14.6881" y1="5.11008" x2="16.8616" y2="7.28357" gradientUnits="userSpaceOnUse">
<stop stop-color="#FFD945"/>
<stop offset="0.2531" stop-color="#FFD442"/>
<stop offset="0.557" stop-color="#FFC539"/>
<stop offset="0.8857" stop-color="#FFAD2B"/>
<stop offset="1" stop-color="#FFA325"/>
</linearGradient>
<linearGradient id="paint6_linear" x1="10.6563" y1="16.4175" x2="15.2285" y2="20.9896" gradientUnits="userSpaceOnUse">
<stop stop-color="#FFD945"/>
<stop offset="0.2531" stop-color="#FFD442"/>
<stop offset="0.557" stop-color="#FFC539"/>
<stop offset="0.8857" stop-color="#FFAD2B"/>
<stop offset="1" stop-color="#FFA325"/>
</linearGradient>
<linearGradient id="paint7_linear" x1="15.192" y1="20.8624" x2="10.8756" y2="16.546" gradientUnits="userSpaceOnUse">
<stop stop-color="#FFD945"/>
<stop offset="0.2531" stop-color="#FFD442"/>
<stop offset="0.557" stop-color="#FFC539"/>
<stop offset="0.8857" stop-color="#FFAD2B"/>
<stop offset="1" stop-color="#FFA325"/>
</linearGradient>
<linearGradient id="paint8_linear" x1="14.8595" y1="20.4372" x2="11.2926" y2="16.8703" gradientUnits="userSpaceOnUse">
<stop stop-color="#E87264" stop-opacity="0"/>
<stop offset="1" stop-color="#FF7044"/>
</linearGradient>
<linearGradient id="paint9_linear" x1="11.9325" y1="17.5101" x2="14.106" y2="19.6836" gradientUnits="userSpaceOnUse">
<stop stop-color="#FFD945"/>
<stop offset="0.2531" stop-color="#FFD442"/>
<stop offset="0.557" stop-color="#FFC539"/>
<stop offset="0.8857" stop-color="#FFAD2B"/>
<stop offset="1" stop-color="#FFA325"/>
</linearGradient>
<linearGradient id="paint10_linear" x1="23.7452" y1="9.52865" x2="28.3173" y2="14.1007" gradientUnits="userSpaceOnUse">
<stop stop-color="#FFD945"/>
<stop offset="0.2531" stop-color="#FFD442"/>
<stop offset="0.557" stop-color="#FFC539"/>
<stop offset="0.8857" stop-color="#FFAD2B"/>
<stop offset="1" stop-color="#FFA325"/>
</linearGradient>
<linearGradient id="paint11_linear" x1="28.2809" y1="13.9735" x2="23.9645" y2="9.65711" gradientUnits="userSpaceOnUse">
<stop stop-color="#FFD945"/>
<stop offset="0.2531" stop-color="#FFD442"/>
<stop offset="0.557" stop-color="#FFC539"/>
<stop offset="0.8857" stop-color="#FFAD2B"/>
<stop offset="1" stop-color="#FFA325"/>
</linearGradient>
<linearGradient id="paint12_linear" x1="27.9485" y1="13.5483" x2="24.3816" y2="9.98138" gradientUnits="userSpaceOnUse">
<stop stop-color="#E87264" stop-opacity="0"/>
<stop offset="1" stop-color="#FF7044"/>
</linearGradient>
<linearGradient id="paint13_linear" x1="25.0215" y1="10.6212" x2="27.195" y2="12.7947" gradientUnits="userSpaceOnUse">
<stop stop-color="#FFD945"/>
<stop offset="0.2531" stop-color="#FFD442"/>
<stop offset="0.557" stop-color="#FFC539"/>
<stop offset="0.8857" stop-color="#FFAD2B"/>
<stop offset="1" stop-color="#FFA325"/>
</linearGradient>
</defs>
<path d="M30.0705 15.3002C28.4672 19.4704 24.4241 22.4301 19.6892 22.4301C13.5292 22.4301 8.56992 17.4707 8.56992 11.3107C8.56992 6.57589 11.5296 2.53282 15.6997 0.929453C16.1966 0.738408 16.068 0.00127647 15.5357 6.07843e-05C15.5238 0 15.5119 0 15.5 0C6.93962 0 6.07847e-05 6.93956 3.98099e-10 15.4999C-6.07839e-05 24.0394 6.96059 31 15.5001 31C24.0604 30.9999 31 24.0604 31 15.5C31 15.4881 31 15.4762 30.9999 15.4643C30.9987 14.932 30.2616 14.8034 30.0705 15.3002Z" fill="url(#paint0_linear)"/>
<path d="M3.65564 13.8744C3.65564 21.3137 9.68629 27.3444 17.1256 27.3444C24.1891 27.3444 29.982 21.9072 30.5492 14.99C30.357 14.9782 30.1574 15.0744 30.0706 15.3003C28.4673 19.4704 24.4241 22.4301 19.6892 22.4301C13.5292 22.4301 8.56993 17.4708 8.56993 11.3108C8.56993 6.57595 11.5296 2.53288 15.6997 0.929513C15.9256 0.842652 16.0218 0.643036 16.0101 0.450897C9.0928 1.01801 3.65564 6.81088 3.65564 13.8744Z" fill="url(#paint1_linear)"/>
<path d="M16.4847 3.84243L16.7831 4.44712C16.8871 4.65782 17.0881 4.80387 17.3206 4.83765L17.9879 4.93462C18.5735 5.0197 18.8073 5.73932 18.3836 6.15234L17.9007 6.62304C17.7325 6.78705 17.6557 7.02337 17.6954 7.25495L17.8094 7.91957C17.9094 8.50278 17.2973 8.94752 16.7735 8.67217L16.1766 8.35839C15.9687 8.24906 15.7202 8.24906 15.5122 8.35839L14.9153 8.67217C14.3916 8.94752 13.7794 8.50278 13.8795 7.91957L13.9934 7.25495C14.0332 7.02335 13.9564 6.78705 13.7881 6.62304L13.3052 6.15234C12.8815 5.73932 13.1153 5.0197 13.7009 4.93462L14.3682 4.83765C14.6007 4.80387 14.8018 4.65782 14.9057 4.44712L15.2042 3.84243C15.4661 3.3118 16.2228 3.3118 16.4847 3.84243Z" fill="url(#paint2_linear)"/>
<path d="M16.3186 4.42815L16.5396 4.87597C16.6166 5.03202 16.7655 5.14017 16.9377 5.1652L17.4319 5.23701C17.8655 5.30001 18.0387 5.83294 17.7249 6.13882L17.3673 6.4874C17.2427 6.60887 17.1858 6.78386 17.2152 6.95538L17.2997 7.44757C17.3737 7.87947 16.9204 8.20883 16.5325 8.00492L16.0905 7.77255C15.9365 7.69157 15.7525 7.69157 15.5984 7.77255L15.1564 8.00492C14.7686 8.20883 14.3152 7.87947 14.3893 7.44757L14.4737 6.95538C14.5031 6.78388 14.4463 6.60887 14.3217 6.4874L13.9641 6.13882C13.6503 5.83294 13.8234 5.30003 14.2571 5.23701L14.7513 5.1652C14.9235 5.14017 15.0724 5.03202 15.1494 4.87597L15.3704 4.42815C15.5643 4.03518 16.1246 4.03518 16.3186 4.42815Z" fill="url(#paint3_linear)"/>
<path d="M17.9679 6.5576L17.0793 5.66908C17.0291 5.6059 16.9555 5.55942 16.8634 5.54604L16.6635 5.51699C16.6576 5.51169 16.6519 5.50621 16.6457 5.50141L16.1069 4.96261C15.9576 4.77759 15.6528 4.79851 15.5401 5.02684L15.3983 5.3143C15.3488 5.41447 15.2533 5.48389 15.1427 5.49997L14.8255 5.54606C14.5471 5.58651 14.436 5.92859 14.6374 6.12495C14.6374 6.12495 14.897 6.38422 14.9014 6.38866C14.9567 6.46264 14.9804 6.55652 14.9646 6.64909L14.9104 6.96505C14.8877 7.0973 14.9421 7.21445 15.0322 7.28673L16.0531 8.30761C16.0954 8.32054 16.1368 8.33741 16.1767 8.35839L16.7735 8.67217C17.2973 8.94752 17.9094 8.50278 17.8094 7.91956L17.6954 7.25495C17.6557 7.02336 17.7325 6.78705 17.9008 6.62303L17.9679 6.5576Z" fill="url(#paint4_linear)"/>
<path d="M16.1489 5.02683L16.2907 5.31429C16.3402 5.41446 16.4357 5.48388 16.5463 5.49995L16.8635 5.54604C17.1419 5.5865 17.253 5.92858 17.0516 6.12493L16.822 6.34868C16.742 6.42664 16.7055 6.53899 16.7244 6.64908L16.7786 6.96504C16.8262 7.24228 16.5351 7.45372 16.2862 7.3228L16.0024 7.17364C15.9036 7.12165 15.7854 7.12165 15.6866 7.17364L15.4028 7.3228C15.1538 7.4537 14.8628 7.24228 14.9104 6.96504L14.9646 6.64908C14.9835 6.53899 14.9469 6.42664 14.867 6.34868L14.6374 6.12493C14.436 5.92858 14.5471 5.5865 14.8255 5.54604L15.1427 5.49995C15.2533 5.4839 15.3488 5.41446 15.3983 5.31429L15.5401 5.02683C15.6647 4.77459 16.0244 4.77459 16.1489 5.02683Z" fill="url(#paint5_linear)"/>
<path d="M13.7292 16.2424L14.0276 16.8471C14.1316 17.0578 14.3326 17.2039 14.5651 17.2376L15.2324 17.3346C15.818 17.4197 16.0518 18.1393 15.6281 18.5523L15.1452 19.023C14.977 19.187 14.9002 19.4234 14.9399 19.6549L15.0539 20.3196C15.1539 20.9028 14.5418 21.3475 14.018 21.0722L13.4211 20.7584C13.2132 20.6491 12.9647 20.6491 12.7567 20.7584L12.1598 21.0722C11.6361 21.3475 11.0239 20.9028 11.124 20.3196L11.2379 19.6549C11.2777 19.4233 11.2009 19.187 11.0326 19.023L10.5497 18.5523C10.126 18.1393 10.3598 17.4197 10.9454 17.3346L11.6127 17.2376C11.8452 17.2039 12.0463 17.0578 12.1502 16.8471L12.4487 16.2424C12.7106 15.7118 13.4673 15.7118 13.7292 16.2424Z" fill="url(#paint6_linear)"/>
<path d="M13.5631 16.8282L13.7841 17.276C13.8611 17.432 14.01 17.5402 14.1822 17.5652L14.6764 17.637C15.11 17.7 15.2832 18.233 14.9694 18.5388L14.6118 18.8874C14.4872 19.0089 14.4303 19.1839 14.4597 19.3554L14.5442 19.8476C14.6182 20.2795 14.1649 20.6089 13.777 20.4049L13.335 20.1726C13.181 20.0916 12.997 20.0916 12.843 20.1726L12.4009 20.4049C12.0131 20.6089 11.5597 20.2795 11.6338 19.8476L11.7182 19.3554C11.7476 19.1839 11.6908 19.0089 11.5662 18.8874L11.2086 18.5388C10.8948 18.233 11.0679 17.7001 11.5016 17.637L11.9958 17.5652C12.168 17.5402 12.3169 17.432 12.3939 17.276L12.6149 16.8282C12.8088 16.4352 13.3691 16.4352 13.5631 16.8282Z" fill="url(#paint7_linear)"/>
<path d="M15.2122 18.9576L14.3237 18.0691C14.2735 18.0059 14.1999 17.9594 14.1078 17.9461L13.9078 17.917C13.902 17.9117 13.8962 17.9062 13.8901 17.9014L13.3513 17.3626C13.202 17.1776 12.8972 17.1985 12.7845 17.4269L12.6426 17.7143C12.5932 17.8145 12.4976 17.8839 12.3871 17.9L12.0699 17.9461C11.7915 17.9865 11.6804 18.3286 11.8818 18.525C11.8818 18.525 12.1414 18.7842 12.1458 18.7887C12.2011 18.8627 12.2248 18.9565 12.2089 19.0491L12.1548 19.3651C12.1321 19.4973 12.1865 19.6145 12.2766 19.6868L13.2974 20.7076C13.3397 20.7206 13.3812 20.7374 13.4211 20.7584L14.0179 21.0722C14.5417 21.3475 15.1538 20.9028 15.0538 20.3196L14.9398 19.655C14.9001 19.4234 14.9769 19.1871 15.1451 19.0231L15.2122 18.9576Z" fill="url(#paint8_linear)"/>
<path d="M13.3932 17.4269L13.5351 17.7143C13.5845 17.8145 13.6801 17.8839 13.7906 17.9L14.1079 17.9461C14.3862 17.9865 14.4974 18.3286 14.296 18.525L14.0664 18.7487C13.9864 18.8267 13.9499 18.939 13.9688 19.0491L14.023 19.3651C14.0705 19.6423 13.7795 19.8537 13.5306 19.7228L13.2468 19.5737C13.1479 19.5217 13.0298 19.5217 12.9309 19.5737L12.6472 19.7228C12.3982 19.8537 12.1072 19.6423 12.1548 19.3651L12.209 19.0491C12.2279 18.939 12.1913 18.8267 12.1113 18.7487L11.8818 18.525C11.6804 18.3286 11.7915 17.9865 12.0699 17.9461L12.3871 17.9C12.4976 17.8839 12.5932 17.8145 12.6426 17.7143L12.7845 17.4269C12.9091 17.1746 13.2688 17.1746 13.3932 17.4269Z" fill="url(#paint9_linear)"/>
<path d="M26.818 9.35353L27.1165 9.95822C27.2205 10.1689 27.4215 10.315 27.654 10.3488L28.3213 10.4457C28.9069 10.5308 29.1407 11.2504 28.717 11.6635L28.2341 12.1341C28.0658 12.2982 27.989 12.5345 28.0288 12.7661L28.1427 13.4307C28.2428 14.0139 27.6306 14.4586 27.1069 14.1833L26.51 13.8695C26.302 13.7602 26.0536 13.7602 25.8456 13.8695L25.2487 14.1833C24.725 14.4586 24.1128 14.0139 24.2128 13.4307L24.3268 12.7661C24.3665 12.5345 24.2898 12.2982 24.1215 12.1341L23.6386 11.6635C23.2149 11.2504 23.4487 10.5308 24.0343 10.4457L24.7016 10.3488C24.9341 10.315 25.1351 10.1689 25.2391 9.95822L25.5376 9.35353C25.7995 8.82291 26.5561 8.82291 26.818 9.35353Z" fill="url(#paint10_linear)"/>
<path d="M26.6519 9.93926L26.873 10.3871C26.95 10.5431 27.0988 10.6513 27.271 10.6763L27.7652 10.7481C28.1989 10.8111 28.3721 11.344 28.0583 11.6499L27.7007 11.9985C27.576 12.12 27.5192 12.295 27.5486 12.4665L27.633 12.9587C27.7071 13.3906 27.2538 13.7199 26.8659 13.516L26.4239 13.2837C26.2699 13.2027 26.0858 13.2027 25.9318 13.2837L25.4898 13.516C25.1019 13.7199 24.6486 13.3906 24.7227 12.9587L24.8071 12.4665C24.8365 12.295 24.7797 12.12 24.655 11.9985L24.2975 11.6499C23.9836 11.344 24.1568 10.8111 24.5905 10.7481L25.0847 10.6763C25.2569 10.6513 25.4057 10.5431 25.4828 10.3871L25.7038 9.93926C25.8977 9.54629 26.458 9.54629 26.6519 9.93926Z" fill="url(#paint11_linear)"/>
<path d="M28.3012 12.0687L27.4127 11.1802C27.3625 11.117 27.2889 11.0705 27.1968 11.0571L26.9968 11.0281C26.991 11.0228 26.9852 11.0173 26.9791 11.0125L26.4403 10.4737C26.291 10.2887 25.9862 10.3096 25.8735 10.5379L25.7316 10.8254C25.6822 10.9256 25.5866 10.995 25.4761 11.0111L25.1589 11.0572C24.8805 11.0976 24.7693 11.4397 24.9708 11.6361C24.9708 11.6361 25.2304 11.8953 25.2347 11.8998C25.2901 11.9737 25.3138 12.0676 25.2979 12.1602L25.2437 12.4762C25.2211 12.6084 25.2755 12.7256 25.3656 12.7978L26.3864 13.8187C26.4287 13.8316 26.4702 13.8485 26.5101 13.8695L27.1069 14.1833C27.6307 14.4586 28.2428 14.0139 28.1428 13.4307L28.0288 12.7661C27.9891 12.5345 28.0659 12.2982 28.2341 12.1341L28.3012 12.0687Z" fill="url(#paint12_linear)"/>
<path d="M26.4822 10.5379L26.6241 10.8254C26.6735 10.9256 26.7691 10.995 26.8796 11.0111L27.1969 11.0572C27.4752 11.0976 27.5864 11.4397 27.385 11.636L27.1554 11.8598C27.0754 11.9378 27.0389 12.0501 27.0578 12.1602L27.112 12.4761C27.1595 12.7534 26.8685 12.9648 26.6195 12.8339L26.3358 12.6847C26.2369 12.6328 26.1188 12.6328 26.0199 12.6847L25.7362 12.8339C25.4872 12.9648 25.1962 12.7534 25.2438 12.4761L25.2979 12.1602C25.3168 12.0501 25.2803 11.9378 25.2003 11.8598L24.9708 11.636C24.7693 11.4397 24.8805 11.0976 25.1589 11.0572L25.4761 11.0111C25.5866 10.995 25.6822 10.9256 25.7316 10.8254L25.8735 10.5379C25.998 10.2857 26.3578 10.2857 26.4822 10.5379Z" fill="url(#paint13_linear)"/>
</svg>
