<svg width="29" height="31" viewBox="0 0 29 31" fill="none" xmlns="http://www.w3.org/2000/svg">
<defs>
<linearGradient id="paint0_linear" x1="23.5809" y1="13.6706" x2="21.1648" y2="16.3025" gradientUnits="userSpaceOnUse">
<stop stop-color="#FFC738"/>
<stop offset="0.4286" stop-color="#FFBB23"/>
<stop offset="1" stop-color="#FFA700"/>
</linearGradient>
<linearGradient id="paint1_linear" x1="22.2551" y1="21.1026" x2="15.5964" y2="14.5271" gradientUnits="userSpaceOnUse">
<stop stop-color="#E4003D" stop-opacity="0"/>
<stop offset="0.2334" stop-color="#E0053F" stop-opacity="0.235294"/>
<stop offset="0.496" stop-color="#D31243" stop-opacity="0.494118"/>
<stop offset="0.7717" stop-color="#BD294B" stop-opacity="0.772549"/>
<stop offset="1" stop-color="#A64153"/>
</linearGradient>
<linearGradient id="paint2_linear" x1="16.2906" y1="14.5609" x2="18.9062" y2="19.0613" gradientUnits="userSpaceOnUse">
<stop stop-color="#E4003D" stop-opacity="0"/>
<stop offset="0.2334" stop-color="#E0053F" stop-opacity="0.235294"/>
<stop offset="0.496" stop-color="#D31243" stop-opacity="0.494118"/>
<stop offset="0.7717" stop-color="#BD294B" stop-opacity="0.772549"/>
<stop offset="1" stop-color="#A64153"/>
</linearGradient>
<linearGradient id="paint3_linear" x1="19.9908" y1="16.3832" x2="22.1629" y2="20.1205" gradientUnits="userSpaceOnUse">
<stop stop-color="#E4003D" stop-opacity="0"/>
<stop offset="0.2334" stop-color="#E0053F" stop-opacity="0.235294"/>
<stop offset="0.496" stop-color="#D31243" stop-opacity="0.494118"/>
<stop offset="0.7717" stop-color="#BD294B" stop-opacity="0.772549"/>
<stop offset="1" stop-color="#A64153"/>
</linearGradient>
<radialGradient id="paint4_radial" cx="0" cy="0" r="1" gradientUnits="userSpaceOnUse" gradientTransform="translate(17.2397 19.9514) rotate(180) scale(7.2305)">
<stop stop-color="#F1CE98"/>
<stop offset="0.3411" stop-color="#F0CC95"/>
<stop offset="0.5655" stop-color="#EBC68C"/>
<stop offset="0.7563" stop-color="#E3BB7E"/>
<stop offset="0.9272" stop-color="#D8AB68"/>
<stop offset="1" stop-color="#D2A35D"/>
</radialGradient>
<linearGradient id="paint5_linear" x1="11.9849" y1="23.5926" x2="21.0728" y2="18.6591" gradientUnits="userSpaceOnUse">
<stop stop-color="#DAB49D" stop-opacity="0"/>
<stop offset="0.4385" stop-color="#CE9E7A" stop-opacity="0.439216"/>
<stop offset="1" stop-color="#C08552"/>
</linearGradient>
<linearGradient id="paint6_linear" x1="15.7805" y1="20.0016" x2="17.6723" y2="28.9701" gradientUnits="userSpaceOnUse">
<stop offset="0.0029" stop-color="#D2A35D" stop-opacity="0"/>
<stop offset="1" stop-color="#C5874E"/>
</linearGradient>
<linearGradient id="paint7_linear" x1="14.6764" y1="19.5556" x2="20.9147" y2="13.3172" gradientUnits="userSpaceOnUse">
<stop offset="0.0029" stop-color="#D2A35D" stop-opacity="0"/>
<stop offset="1" stop-color="#C5874E"/>
</linearGradient>
<linearGradient id="paint8_linear" x1="16.7573" y1="19.8435" x2="12.5491" y2="26.2259" gradientUnits="userSpaceOnUse">
<stop stop-color="#FFC738"/>
<stop offset="0.4286" stop-color="#FFBB23"/>
<stop offset="1" stop-color="#FFA700"/>
</linearGradient>
<linearGradient id="paint9_linear" x1="13.2532" y1="23.7023" x2="20.7348" y2="16.3142" gradientUnits="userSpaceOnUse">
<stop stop-color="#E4003D" stop-opacity="0"/>
<stop offset="0.2334" stop-color="#E0053F" stop-opacity="0.235294"/>
<stop offset="0.496" stop-color="#D31243" stop-opacity="0.494118"/>
<stop offset="0.7717" stop-color="#BD294B" stop-opacity="0.772549"/>
<stop offset="1" stop-color="#A64153"/>
</linearGradient>
<linearGradient id="paint10_linear" x1="19.4068" y1="16.8994" x2="16.2271" y2="22.3703" gradientUnits="userSpaceOnUse">
<stop stop-color="#E4003D" stop-opacity="0"/>
<stop offset="0.2334" stop-color="#E0053F" stop-opacity="0.235294"/>
<stop offset="0.496" stop-color="#D31243" stop-opacity="0.494118"/>
<stop offset="0.7717" stop-color="#BD294B" stop-opacity="0.772549"/>
<stop offset="1" stop-color="#A64153"/>
</linearGradient>
<linearGradient id="paint11_linear" x1="14.9572" y1="18.7079" x2="13.0783" y2="21.9409" gradientUnits="userSpaceOnUse">
<stop stop-color="#E4003D" stop-opacity="0"/>
<stop offset="0.2334" stop-color="#E0053F" stop-opacity="0.235294"/>
<stop offset="0.496" stop-color="#D31243" stop-opacity="0.494118"/>
<stop offset="0.7717" stop-color="#BD294B" stop-opacity="0.772549"/>
<stop offset="1" stop-color="#A64153"/>
</linearGradient>
<radialGradient id="paint12_radial" cx="0" cy="0" r="1" gradientUnits="userSpaceOnUse" gradientTransform="translate(21.1077 24.6876) scale(7.2305)">
<stop stop-color="#F1CE98"/>
<stop offset="0.3411" stop-color="#F0CC95"/>
<stop offset="0.5655" stop-color="#EBC68C"/>
<stop offset="0.7563" stop-color="#E3BB7E"/>
<stop offset="0.9272" stop-color="#D8AB68"/>
<stop offset="1" stop-color="#D2A35D"/>
</radialGradient>
<linearGradient id="paint13_linear" x1="26.3625" y1="28.3288" x2="17.2746" y2="23.3954" gradientUnits="userSpaceOnUse">
<stop stop-color="#DAB49D" stop-opacity="0"/>
<stop offset="0.4385" stop-color="#CE9E7A" stop-opacity="0.439216"/>
<stop offset="1" stop-color="#C08552"/>
</linearGradient>
<linearGradient id="paint14_linear" x1="22.5669" y1="24.7379" x2="20.6751" y2="33.7063" gradientUnits="userSpaceOnUse">
<stop offset="0.0029" stop-color="#D2A35D" stop-opacity="0"/>
<stop offset="1" stop-color="#C5874E"/>
</linearGradient>
<linearGradient id="paint15_linear" x1="8.89955" y1="22.8055" x2="6.18047" y2="26.9294" gradientUnits="userSpaceOnUse">
<stop stop-color="#FFC738"/>
<stop offset="0.4286" stop-color="#FFBB23"/>
<stop offset="1" stop-color="#FFA700"/>
</linearGradient>
<linearGradient id="paint16_linear" x1="6.64311" y1="25.209" x2="11.5716" y2="20.3422" gradientUnits="userSpaceOnUse">
<stop stop-color="#E4003D" stop-opacity="0"/>
<stop offset="0.2334" stop-color="#E0053F" stop-opacity="0.235294"/>
<stop offset="0.496" stop-color="#D31243" stop-opacity="0.494118"/>
<stop offset="0.7717" stop-color="#BD294B" stop-opacity="0.772549"/>
<stop offset="1" stop-color="#A64153"/>
</linearGradient>
<linearGradient id="paint17_linear" x1="10.608" y1="20.7728" x2="8.69677" y2="24.0611" gradientUnits="userSpaceOnUse">
<stop stop-color="#E4003D" stop-opacity="0"/>
<stop offset="0.2334" stop-color="#E0053F" stop-opacity="0.235294"/>
<stop offset="0.496" stop-color="#D31243" stop-opacity="0.494118"/>
<stop offset="0.7717" stop-color="#BD294B" stop-opacity="0.772549"/>
<stop offset="1" stop-color="#A64153"/>
</linearGradient>
<linearGradient id="paint18_linear" x1="7.32755" y1="21.7515" x2="6.14365" y2="23.7885" gradientUnits="userSpaceOnUse">
<stop stop-color="#E4003D" stop-opacity="0"/>
<stop offset="0.2334" stop-color="#E0053F" stop-opacity="0.235294"/>
<stop offset="0.496" stop-color="#D31243" stop-opacity="0.494118"/>
<stop offset="0.7717" stop-color="#BD294B" stop-opacity="0.772549"/>
<stop offset="1" stop-color="#A64153"/>
</linearGradient>
<radialGradient id="paint19_radial" cx="0" cy="0" r="1" gradientUnits="userSpaceOnUse" gradientTransform="translate(13.0474 25.6467) rotate(180) scale(5.12781)">
<stop stop-color="#F1CE98"/>
<stop offset="0.3411" stop-color="#F0CC95"/>
<stop offset="0.5655" stop-color="#EBC68C"/>
<stop offset="0.7563" stop-color="#E3BB7E"/>
<stop offset="0.9272" stop-color="#D8AB68"/>
<stop offset="1" stop-color="#D2A35D"/>
</radialGradient>
<linearGradient id="paint20_linear" x1="9.19844" y1="28.2714" x2="15.9415" y2="24.6109" gradientUnits="userSpaceOnUse">
<stop stop-color="#DAB49D" stop-opacity="0"/>
<stop offset="0.4385" stop-color="#CE9E7A" stop-opacity="0.439216"/>
<stop offset="1" stop-color="#C08552"/>
</linearGradient>
<linearGradient id="paint21_linear" x1="12.041" y1="25.6967" x2="13.3279" y2="31.7974" gradientUnits="userSpaceOnUse">
<stop offset="0.0029" stop-color="#D2A35D" stop-opacity="0"/>
<stop offset="1" stop-color="#C5874E"/>
</linearGradient>
<linearGradient id="paint22_linear" x1="23.149" y1="19.5302" x2="14.9297" y2="11.3109" gradientUnits="userSpaceOnUse">
<stop stop-color="#E4003D" stop-opacity="0"/>
<stop offset="0.2334" stop-color="#E0053F" stop-opacity="0.235294"/>
<stop offset="0.496" stop-color="#D31243" stop-opacity="0.494118"/>
<stop offset="0.7717" stop-color="#BD294B" stop-opacity="0.772549"/>
<stop offset="1" stop-color="#A64153"/>
</linearGradient>
<linearGradient id="paint23_linear" x1="10.6422" y1="4.14503" x2="19.2696" y2="20.805" gradientUnits="userSpaceOnUse">
<stop stop-color="#FF4974"/>
<stop offset="0.3262" stop-color="#FE4672"/>
<stop offset="0.5324" stop-color="#FB3E6C"/>
<stop offset="0.7054" stop-color="#F52F60"/>
<stop offset="0.8591" stop-color="#EE1A51"/>
<stop offset="1" stop-color="#E4003D"/>
</linearGradient>
<linearGradient id="paint24_linear" x1="15.7878" y1="10.2832" x2="15.0801" y2="16.0863" gradientUnits="userSpaceOnUse">
<stop stop-color="#FFC738"/>
<stop offset="0.2447" stop-color="#FFC331"/>
<stop offset="0.5988" stop-color="#FFB81E"/>
<stop offset="1" stop-color="#FFA700"/>
</linearGradient>
<linearGradient id="paint25_linear" x1="22.5096" y1="9.87453" x2="22.5096" y2="14.2938" gradientUnits="userSpaceOnUse">
<stop stop-color="#FF4974"/>
<stop offset="0.3262" stop-color="#FE4672"/>
<stop offset="0.5324" stop-color="#FB3E6C"/>
<stop offset="0.7054" stop-color="#F52F60"/>
<stop offset="0.8591" stop-color="#EE1A51"/>
<stop offset="1" stop-color="#E4003D"/>
</linearGradient>
<linearGradient id="paint26_linear" x1="14.4175" y1="8.06202" x2="7.12816" y2="-11.6828" gradientUnits="userSpaceOnUse">
<stop stop-color="#E4003D" stop-opacity="0"/>
<stop offset="0.0544" stop-color="#E0043E" stop-opacity="0.054902"/>
<stop offset="1" stop-color="#A64153"/>
</linearGradient>
<linearGradient id="paint27_linear" x1="18.9417" y1="1.62937" x2="6.41539" y2="31.0697" gradientUnits="userSpaceOnUse">
<stop stop-color="#E4003D" stop-opacity="0"/>
<stop offset="0.2859" stop-color="#E1033E" stop-opacity="0.286275"/>
<stop offset="0.5159" stop-color="#D70D41" stop-opacity="0.517647"/>
<stop offset="0.7265" stop-color="#C71E47" stop-opacity="0.72549"/>
<stop offset="0.9243" stop-color="#B1364F" stop-opacity="0.92549"/>
<stop offset="1" stop-color="#A64153"/>
</linearGradient>
</defs>
<path d="M18.5709 11.5268C19.5756 10.6915 20.8669 10.1889 22.2756 10.1889C25.478 10.1889 28.0739 12.7849 28.0739 15.9872C28.0739 17.8817 27.1652 19.5635 25.7604 20.6216L20.2619 24.8869C19.2572 25.7222 17.9661 26.2248 16.5572 26.2248C13.3551 26.2248 10.7589 23.6289 10.7589 20.4265C10.7589 18.5323 11.6676 16.8502 13.0727 15.7921L18.5709 11.5268Z" fill="url(#paint0_linear)"/>
<path d="M16.5572 26.2249C15.0882 26.2249 13.7467 25.6783 12.7252 24.7774C14.6225 23.347 17.4557 21.4402 20.5523 20.147C26.0931 17.8325 19.7472 19.0512 22.9737 17.2277C26.2 15.4042 23.7452 16.5965 24.9375 14.6327C25.5832 13.5694 26.4753 13.0819 27.1579 12.8582C27.7375 13.7609 28.0739 14.8347 28.0739 15.9872C28.0739 17.8817 27.1652 19.5635 25.7603 20.6217L20.2619 24.8869C19.2572 25.7223 17.9661 26.2249 16.5572 26.2249Z" fill="url(#paint1_linear)"/>
<path d="M13.0727 15.7921L18.5709 11.5268C19.5756 10.6915 20.8669 10.1889 22.2756 10.1889C22.6382 10.1889 22.9927 10.2225 23.3368 10.2861C22.7337 11.3152 21.8863 12.4987 20.9197 13.0881C19.0025 14.2571 23.2907 11.3551 21.093 13.0384C18.8954 14.7219 16.6975 15.6102 16.6975 15.6102L10.894 21.6736C10.806 21.2721 10.7589 20.8546 10.7589 20.4265C10.7589 18.5321 11.6676 16.8502 13.0727 15.7921Z" fill="url(#paint2_linear)"/>
<path d="M18.5678 19.2575C18.5678 19.2575 15.8226 23.3286 17.9268 20.1021C20.0311 16.8756 23.4446 14.3974 23.4446 14.3974C23.4446 14.3974 24.5066 11.3083 22.5892 13.7867C20.672 16.2649 18.5678 19.2575 18.5678 19.2575Z" fill="url(#paint3_linear)"/>
<path d="M10.7589 20.4265C10.7589 23.6289 13.2248 26.2639 16.2665 26.2639C19.8461 26.2639 21.7742 24.0965 21.7742 20.8941C21.7742 17.692 19.3083 14.6285 16.2665 14.6285C13.2248 14.6285 10.7589 17.2242 10.7589 20.4265Z" fill="url(#paint4_radial)"/>
<path d="M15.661 26.1916C17.3923 26.0402 20.3617 24.399 20.3617 22.1094C20.3617 18.3311 17.8239 17.0336 15.5553 17.0783C12.7394 17.1334 9.71274 20.7601 11.9298 23.6427C13.0686 25.1239 15.8344 25.4248 17.3729 23.9322C18.3102 23.0232 18.5538 21.3894 17.9388 20.4131C16.4533 18.0548 13.425 19.3519 13.6592 21.0765C13.6878 21.2882 13.7481 21.4566 13.8313 21.589C14.091 22.0013 14.6963 21.6628 14.5305 21.2009C14.5075 21.1366 14.4905 21.0654 14.4806 20.9864C14.3429 19.8864 16.3627 19.5037 17.0056 20.4604C17.6482 21.4169 17.1891 22.9473 15.9498 23.2822C14.7102 23.6169 12.925 23.202 12.5473 22.107C12.0343 20.62 12.7519 18.1275 15.5555 17.9948C17.822 17.8874 19.6077 19.5626 19.6077 22.1091C19.6077 24.399 17.3923 26.0402 15.661 26.1916Z" fill="url(#paint5_linear)"/>
<path d="M15.9712 26.1915C17.6795 26.0338 20.6098 24.3238 20.6098 21.9378C20.6098 18.0011 18.1054 16.6492 15.8669 16.6956C13.0881 16.7533 10.1014 20.532 12.2889 23.5357C13.413 25.079 16.1422 25.3923 17.6603 23.8373C18.5851 22.89 18.8256 21.1876 18.219 20.1704C16.7531 17.713 13.7645 19.0647 13.9956 20.8615C14.024 21.0821 14.0836 21.2576 14.1656 21.3955C14.422 21.8253 15.0192 21.4726 14.8555 20.9913C14.8328 20.9244 14.816 20.8501 14.8063 20.7678C14.6703 19.6217 16.6637 19.2229 17.298 20.2196C17.9321 21.2163 17.4791 22.811 16.2559 23.1599C15.0329 23.5088 13.2714 23.0766 12.8984 21.9355C12.3923 20.3861 13.1006 17.7887 15.8671 17.6506C18.1035 17.5387 19.8658 19.2844 19.8658 21.9378C19.8658 24.3238 17.6795 26.0338 15.9712 26.1915Z" fill="url(#paint6_linear)"/>
<path d="M10.7589 20.4266C10.7589 17.2242 13.2248 14.6283 16.2665 14.6283C18.5136 14.6283 20.4462 16.3004 21.3026 18.4652L14.0157 25.7521C12.0961 24.8349 10.7589 22.7846 10.7589 20.4266Z" fill="url(#paint7_linear)"/>
<path d="M14.2724 11.8182C13.2677 10.9826 11.9766 10.4803 10.5677 10.4803C7.36536 10.4803 4.76941 13.0762 4.76941 16.2784C4.76941 18.1728 5.67809 19.8549 7.08296 20.913L18.0855 29.6233C19.0902 30.4586 20.3813 30.9612 21.7902 30.9612C24.9925 30.9612 27.5885 28.3653 27.5885 25.1629C27.5885 23.2685 26.6798 21.5866 25.2749 20.5285L14.2724 11.8182Z" fill="url(#paint8_linear)"/>
<path d="M21.7902 30.9612C23.2594 30.9612 24.6006 30.4144 25.6224 29.5138C23.7248 28.0831 20.8917 26.1766 17.795 24.8831C12.2543 22.5686 13.096 19.3424 9.86977 17.5189C6.64329 15.6954 9.09828 16.8876 7.90579 14.9239C7.26035 13.8605 6.36799 13.3731 5.68542 13.1496C5.10573 14.0521 4.76941 15.1261 4.76941 16.2784C4.76941 18.1728 5.67809 19.8549 7.08296 20.9131L18.0855 29.6233C19.0902 30.4586 20.3813 30.9612 21.7902 30.9612Z" fill="url(#paint9_linear)"/>
<path d="M25.275 20.5282L14.2725 11.8182C13.2678 10.9826 11.9767 10.4803 10.5678 10.4803C10.2052 10.4803 9.85072 10.5139 9.50659 10.5775C10.1097 11.6063 10.9574 12.7898 11.924 13.3794C13.8411 14.5483 15.0568 16.0915 17.2545 17.7748C19.4524 19.4583 21.65 20.3466 21.65 20.3466L27.4535 26.41C27.5418 26.0082 27.5886 25.591 27.5886 25.1629C27.5886 23.2684 26.6799 21.5864 25.275 20.5282Z" fill="url(#paint10_linear)"/>
<path d="M19.7796 23.9938C19.7796 23.9938 17.0207 23.6197 14.9165 20.3934C12.8122 17.1669 9.39868 14.6885 9.39868 14.6885C9.39868 14.6885 13.8411 16.0447 15.7582 18.5229C17.6754 21.0013 19.7796 23.9938 19.7796 23.9938Z" fill="url(#paint11_linear)"/>
<path d="M27.5885 25.1629C27.5885 28.365 25.1227 31 22.0809 31C18.5015 31 16.5735 28.8328 16.5735 25.6305C16.5735 22.4281 19.0394 19.3646 22.0809 19.3646C25.1227 19.3646 27.5885 21.9605 27.5885 25.1629Z" fill="url(#paint12_radial)"/>
<path d="M22.6864 30.9278C20.9554 30.7765 17.9857 29.1353 17.9857 26.8454C17.9857 23.0674 20.5235 21.7699 22.7921 21.8146C25.608 21.8697 28.6346 25.4964 26.4176 28.379C25.2788 29.86 22.513 30.1608 20.9745 28.6685C20.0375 27.7595 19.7936 26.1255 20.4085 25.1494C21.8941 22.7909 24.9224 24.0882 24.6882 25.8126C24.6596 26.0245 24.5993 26.1926 24.516 26.3251C24.2563 26.7373 23.6511 26.3991 23.8169 25.9372C23.8398 25.8729 23.8569 25.8017 23.8668 25.7227C24.0045 24.6227 21.9846 24.24 21.3418 25.1967C20.6992 26.1532 21.1583 27.6836 22.3978 28.0183C23.6372 28.3532 25.4223 27.9383 25.8 26.8433C26.313 25.3563 25.5955 22.8638 22.7919 22.7308C20.5254 22.6237 18.7397 24.2989 18.7397 26.8454C18.7397 29.1353 20.9554 30.7765 22.6864 30.9278Z" fill="url(#paint13_linear)"/>
<path d="M22.3762 30.9279C20.6679 30.7701 17.7375 29.0601 17.7375 26.6742C17.7375 22.7373 20.242 21.3854 22.4805 21.4319C25.2593 21.4894 28.246 25.2682 26.0585 28.2721C24.9346 29.8153 22.2052 30.1287 20.6871 28.5736C19.7623 27.6264 19.5218 25.924 20.1287 24.9068C21.5946 22.4494 24.5829 23.8008 24.3518 25.5979C24.3234 25.8185 24.2641 25.994 24.1818 26.1319C23.9256 26.5614 23.3284 26.2088 23.4919 25.7277C23.5146 25.6608 23.5314 25.5865 23.5411 25.5042C23.6771 24.3578 21.6837 23.9593 21.0497 24.956C20.4153 25.9526 20.8685 27.5474 22.0915 27.8963C23.3145 28.2451 25.0763 27.813 25.449 26.6719C25.9551 25.1225 25.247 22.5251 22.4805 22.387C20.2439 22.2751 18.4816 24.0206 18.4816 26.6742C18.4816 29.0601 20.6679 30.7701 22.3762 30.9279Z" fill="url(#paint14_linear)"/>
<path d="M6.74746 17.24C6.09422 16.749 5.26785 16.4884 4.38306 16.552C2.43515 16.6925 0.916748 18.3618 0.916748 20.286C0.916748 21.4244 1.44228 22.4317 2.26723 23.0719L9.31479 28.8198C10.0153 29.4177 10.9311 29.8163 11.9502 29.8884C14.3494 30.0577 16.3829 28.3617 16.3829 26.0924C16.3829 24.7499 15.662 23.5541 14.5668 22.8117L6.74746 17.24Z" fill="url(#paint15_linear)"/>
<path d="M11.9502 29.8884C13.0365 29.9651 14.0495 29.6581 14.8354 29.0822C13.3859 28.0105 11.2977 26.6213 9.11447 25.6887C5.44428 24.1211 5.98329 22.075 3.95119 20.9618C2.00754 19.8968 3.4784 20.5819 2.75775 19.3965C2.37248 18.7625 1.84553 18.4921 1.44653 18.3777C1.11045 18.9391 0.916748 19.5936 0.916748 20.2861C0.916748 21.4244 1.44204 22.4317 2.26723 23.0719L9.31479 28.8199C10.0153 29.4178 10.9311 29.8163 11.9502 29.8884Z" fill="url(#paint16_linear)"/>
<path d="M14.5667 22.8117L6.74769 17.24C6.09421 16.749 5.26784 16.4884 4.38329 16.552C4.15836 16.5683 3.93935 16.605 3.72815 16.6596C4.09924 17.2743 4.62595 17.9822 5.23449 18.3202C6.46577 19.0039 7.26423 19.9644 8.74337 21.019C10.2703 22.1079 11.8478 22.6944 11.8478 22.6944L16.2753 26.972C16.3458 26.6903 16.3832 26.3958 16.3832 26.0924C16.3832 24.75 15.662 23.5541 14.5667 22.8117Z" fill="url(#paint17_linear)"/>
<path d="M10.5021 25.1341C10.5021 25.1341 8.58379 24.8469 7.17134 22.7401C5.801 20.6954 3.66199 19.2135 3.66199 19.2135C3.66199 19.2135 6.46583 19.9608 7.73116 21.5256C9.03198 23.1341 10.5021 25.1341 10.5021 25.1341Z" fill="url(#paint18_linear)"/>
<path d="M8.27979 26.0924C8.27979 28.3617 10.2133 30.092 12.4996 29.9298C15.0591 29.7484 16.3829 28.2411 16.3829 26.1525C16.3829 24.0638 14.6833 22.0485 12.4996 22.0263C10.2133 22.0031 8.27979 23.8231 8.27979 26.0924Z" fill="url(#paint19_radial)"/>
<path d="M12.0529 29.9123C13.3192 29.7212 15.417 28.4944 15.417 26.9855C15.417 24.4959 13.6299 23.6528 11.9746 23.6942C9.83866 23.7474 7.43665 26.3561 9.20717 28.3229C10.0931 29.307 12.1811 29.3806 13.3054 28.3021C13.9776 27.6571 14.1507 26.5578 13.7125 25.9193C12.6366 24.3519 10.3673 25.2833 10.5463 26.4741C10.5683 26.62 10.6144 26.735 10.6778 26.8242C10.8753 27.1013 11.3327 26.8499 11.2078 26.5368C11.1903 26.4933 11.1775 26.4448 11.1702 26.3906C11.0662 25.6359 12.5701 25.3363 13.0391 25.9713C13.5036 26.6002 13.1723 27.6451 12.2662 27.9161C11.3429 28.1926 9.98222 27.975 9.68942 27.2241C9.28924 26.1976 9.84836 24.4408 11.9746 24.32C13.6285 24.2258 14.8929 25.3202 14.8929 27.0074C14.8931 28.5247 13.3194 29.7212 12.0529 29.9123Z" fill="url(#paint20_linear)"/>
<path d="M12.282 29.8962C13.5263 29.7025 15.5879 28.4348 15.5879 26.8656C15.5879 24.276 13.8314 23.3938 12.2051 23.4316C10.108 23.4806 7.75136 26.1835 9.4883 28.2331C10.3577 29.2593 12.408 29.344 13.5125 28.2269C14.1731 27.559 14.3432 26.4162 13.9125 25.7506C12.8553 24.1175 10.6266 25.0785 10.8026 26.3168C10.8241 26.4684 10.8693 26.5881 10.9317 26.6811C11.1257 26.9699 11.5746 26.7102 11.4521 26.3842C11.435 26.3388 11.4225 26.2885 11.4152 26.2319C11.313 25.4472 12.7902 25.1409 13.251 25.8027C13.7074 26.458 13.382 27.5432 12.4918 27.822C11.585 28.1058 10.2489 27.8745 9.96156 27.0933C9.56872 26.0252 10.1177 24.2012 12.2051 24.0823C13.8302 23.9896 15.073 25.1317 15.073 26.8864C15.073 28.4644 13.5263 29.7025 12.282 29.8962Z" fill="url(#paint21_linear)"/>
<path d="M27.5886 25.1629C27.5886 25.1057 27.5877 25.0489 27.586 24.9921C27.5858 24.985 27.5856 24.978 27.5853 24.9709C27.5326 23.268 26.7826 21.751 25.6261 20.7257L25.7602 20.6217C27.1653 19.5635 28.074 17.8814 28.074 15.9872C28.074 12.7849 25.478 10.1889 22.2756 10.1889C20.8667 10.1889 19.5756 10.6915 18.5709 11.5268L16.2141 13.3551L14.2726 11.818C13.2679 10.9826 11.9765 10.48 10.5679 10.48C10.0589 10.48 9.56553 10.5458 9.09534 10.669C9.09298 10.6806 9.09061 10.692 9.08848 10.7038C9.08328 10.73 9.07855 10.7563 9.07406 10.7825C9.05845 10.8712 9.04497 10.9606 9.03338 11.0503C9.02392 11.0538 9.01446 11.0581 9.00571 11.0635C9.00547 11.0262 9.00523 10.9885 9.00594 10.9509C9.00854 10.7927 8.84062 10.7232 8.73041 10.788C8.73041 10.7847 8.73041 10.7809 8.73041 10.7776C8.29523 10.9228 7.88322 11.1184 7.50078 11.3573C7.41446 12.0313 7.42628 12.8515 7.65073 13.8023C7.8714 14.7368 8.37375 15.6762 9.19823 16.4444C9.28573 16.5383 9.3775 16.6301 9.47376 16.7197L22.967 30.2129C23.1519 30.4118 23.3567 30.6015 23.5809 30.7793C25.8938 30.0826 27.5886 27.8177 27.5886 25.1629Z" fill="url(#paint22_linear)"/>
<path d="M21.4866 10.6393C21.4804 10.6045 21.4745 10.5697 21.4684 10.5352L21.467 10.526C21.4603 10.4915 21.4537 10.4565 21.4471 10.4212L21.4468 10.4191C21.4402 10.3872 21.4341 10.3548 21.4275 10.3226C21.4192 10.2798 21.41 10.2367 21.401 10.1937C21.3858 10.1223 21.3695 10.0501 21.353 9.97823C21.3362 9.90491 21.318 9.83041 21.2993 9.75638C21.2903 9.71949 21.2806 9.68212 21.2706 9.64498C21.2534 9.57852 21.2356 9.51206 21.2167 9.44537C21.2127 9.43094 21.2089 9.41699 21.2049 9.4028C21.1945 9.36637 21.1843 9.33019 21.1734 9.29353C21.0994 9.03881 21.0164 8.78361 20.9256 8.52841C20.8996 8.45604 20.8733 8.38391 20.8461 8.31153C20.8454 8.30941 20.8447 8.30728 20.8437 8.30515C20.8173 8.23443 20.7901 8.16419 20.7626 8.09347C20.7463 8.05255 20.73 8.0114 20.7137 7.97025C20.6865 7.9045 20.6593 7.83851 20.6318 7.77276C20.616 7.73468 20.6001 7.6966 20.5833 7.65853C20.5677 7.62258 20.5521 7.58639 20.5368 7.5502C20.5207 7.51449 20.5046 7.47807 20.4887 7.44188C20.4762 7.41468 20.4641 7.38748 20.4516 7.36029C20.4431 7.34184 20.4346 7.32339 20.4261 7.30423C20.3814 7.20632 20.335 7.10864 20.2877 7.01096C20.2704 6.97524 20.2527 6.93977 20.235 6.90358C20.2177 6.86811 20.1995 6.83239 20.1813 6.79692C20.1661 6.76593 20.1501 6.73519 20.1344 6.7042C20.0774 6.59304 20.019 6.48236 19.9592 6.3719C19.9403 6.33666 19.9209 6.30166 19.9015 6.26666C19.8821 6.23142 19.8627 6.19641 19.8431 6.16165C19.8237 6.12617 19.8038 6.0914 19.7837 6.05663C19.7638 6.02187 19.7435 5.9871 19.7234 5.95233C19.5415 5.63967 19.3485 5.3322 19.1449 5.0316C19.1035 4.97034 19.0619 4.90979 19.0198 4.84948C18.6607 4.3346 18.2712 3.84171 17.8557 3.38027C17.8341 3.35639 17.8124 3.33226 17.7904 3.30885C17.7629 3.27857 17.7355 3.24854 17.7078 3.21874C17.6799 3.18917 17.652 3.1589 17.6244 3.12981C17.5972 3.10119 17.5704 3.07281 17.5428 3.04443C17.486 2.98483 17.4283 2.92617 17.3701 2.86752C17.3126 2.81028 17.2552 2.75328 17.197 2.69699C17.1778 2.67831 17.1582 2.65986 17.1388 2.64118C17.1154 2.61823 17.092 2.59577 17.0678 2.57401C17.0508 2.55769 17.034 2.5416 17.016 2.52599C16.9888 2.49998 16.9612 2.47443 16.9333 2.44913C16.9042 2.42169 16.8739 2.39473 16.8441 2.368C16.8145 2.34104 16.7845 2.31479 16.7545 2.28806C16.7216 2.25921 16.6885 2.23036 16.6551 2.2015C16.6315 2.1814 16.6076 2.16082 16.5839 2.14048C16.5501 2.11186 16.5163 2.08348 16.4822 2.0551C16.4515 2.02956 16.421 2.00449 16.3898 1.97942C16.3628 1.95742 16.3358 1.93566 16.3086 1.91367C16.2741 1.88599 16.2391 1.85856 16.2041 1.83136C16.1767 1.8096 16.1488 1.78832 16.1213 1.76679C15.9612 1.64404 15.799 1.5265 15.6348 1.41439C15.6029 1.39287 15.571 1.37135 15.5393 1.34959C15.4383 1.28218 15.3366 1.2169 15.2342 1.15376C15.2022 1.13389 15.1701 1.11402 15.1377 1.09486C14.8773 0.937821 14.6119 0.794022 14.3425 0.66536C14.3082 0.648804 14.2742 0.632958 14.2396 0.617112C14.0429 0.526055 13.8442 0.443039 13.6434 0.368775C13.6096 0.355767 13.5762 0.343704 13.5422 0.331642C13.5143 0.321472 13.4863 0.311775 13.4582 0.302078C13.4029 0.283157 13.3473 0.26471 13.2919 0.247208C13.2633 0.237747 13.2342 0.228523 13.2051 0.219773C13.1396 0.199669 13.0739 0.180748 13.0076 0.162537C12.9788 0.154495 12.9497 0.146454 12.9211 0.139122C12.8953 0.132263 12.8698 0.125641 12.8435 0.119019C12.8213 0.113342 12.7988 0.107903 12.7759 0.102463C12.7491 0.0958406 12.7217 0.0894548 12.6943 0.083069C12.672 0.0781022 12.6491 0.0726625 12.6264 0.0679323C12.5476 0.050667 12.4682 0.0345841 12.3885 0.020157C12.3582 0.0142442 12.3274 0.00904097 12.2967 0.00360118C12.2946 0.00360118 12.292 0.00312815 12.2896 0.00265514C12.2851 0.0019456 12.2806 0.00123606 12.2761 0.000526533C12.1825 -0.0068053 12.042 0.062256 12.1044 0.218826C13.1001 2.71639 12.5621 5.56587 10.7208 7.52561C10.6014 7.65261 10.4871 7.78435 10.3781 7.92011C10.0863 8.28528 9.8339 8.68073 9.62695 9.09959C9.61584 9.12158 9.60496 9.14382 9.59479 9.16605C9.52809 9.30464 9.46683 9.44537 9.41078 9.58846C9.40132 9.61235 9.39162 9.63671 9.38264 9.66107C9.37223 9.68803 9.3623 9.71546 9.35236 9.7429C9.34196 9.77057 9.3325 9.79801 9.32304 9.82568C9.3131 9.85311 9.30411 9.88102 9.29465 9.90869C9.28567 9.9366 9.27668 9.96427 9.26769 9.99242C9.25989 10.0165 9.25255 10.0404 9.24522 10.0646C9.23576 10.0962 9.2263 10.1284 9.21708 10.1608C9.20904 10.1887 9.20123 10.2166 9.19366 10.2452C9.18609 10.2736 9.17853 10.302 9.17143 10.3304C9.16221 10.3661 9.15346 10.4018 9.14542 10.4373C9.14021 10.4588 9.13501 10.4803 9.13051 10.5021C9.12011 10.5475 9.11017 10.5932 9.10142 10.6388C9.09669 10.6608 9.09244 10.6821 9.08865 10.7038C9.08345 10.7301 9.07872 10.7564 9.07423 10.7826C9.04182 10.9673 9.0177 11.1542 9.00256 11.3424C9.00043 11.3639 8.99878 11.3852 8.99712 11.4065C8.99381 11.4569 8.99097 11.5075 8.98884 11.5579C8.98719 11.5853 8.98648 11.6128 8.9853 11.6397C8.9827 11.7327 8.98175 11.8256 8.98317 11.9188C8.98388 11.9713 8.9853 12.0245 8.98766 12.0773C8.98766 12.0784 8.9879 12.0796 8.9879 12.0811C9.00138 12.3344 8.64756 12.4117 8.55674 12.1747C8.34837 11.6314 8.16697 10.9238 8.17998 10.1246C8.18329 9.92076 7.90255 9.86305 7.82852 10.053C7.52555 10.8311 7.25119 12.1097 7.6509 13.8024C8.23556 16.2779 10.7965 18.7913 16.0934 18.0532C16.1504 18.0456 16.2079 18.0376 16.2651 18.0286C16.4546 17.9986 16.6405 17.961 16.8228 17.9153C16.9252 17.8893 17.0269 17.8609 17.1277 17.8302C17.1542 17.8224 17.1804 17.8138 17.2069 17.8056C19.2151 17.1587 20.7219 15.5367 21.3101 13.5725C21.3175 13.5477 21.3248 13.5228 21.3317 13.4985C21.3359 13.4833 21.3402 13.4682 21.3447 13.4531C21.3475 13.4405 21.3511 13.4287 21.3546 13.4166C21.3612 13.3918 21.3676 13.3667 21.3745 13.3419C21.3804 13.3168 21.3868 13.2918 21.3932 13.2669C21.3993 13.2418 21.4052 13.2168 21.4111 13.1917C21.5374 12.6525 21.5954 12.0919 21.5767 11.5219C21.5694 11.2932 21.5497 11.0636 21.5171 10.833C21.5131 10.806 21.5093 10.7788 21.5053 10.7521C21.4994 10.7147 21.4932 10.6769 21.4866 10.6393Z" fill="url(#paint23_linear)"/>
<path d="M19.2788 13.7605C19.1449 15.9357 17.2659 17.6272 15.0926 17.4621C12.9368 17.2985 11.3289 15.4121 11.5051 13.2603C11.596 12.1539 12.1638 11.1953 12.9867 10.5508C14.379 9.4605 15.1004 7.77039 15.0954 6.00199C15.0954 5.99892 15.0956 5.9975 15.0961 5.99774C17.8131 7.01332 19.4588 10.8396 19.2788 13.7605Z" fill="url(#paint24_linear)"/>
<path d="M21.8915 9.58463C22.0963 10.5066 22.3574 12.26 21.8033 13.6427C21.7595 13.7522 21.895 13.8449 21.9811 13.7643C22.7526 13.0438 24.2013 11.2646 22.2437 9.38785C22.0928 9.24335 21.8461 9.38076 21.8915 9.58463Z" fill="url(#paint25_linear)"/>
<path d="M20.683 11.2502C20.9704 14.0519 18.9309 16.6041 16.1254 16.8512C13.3426 17.0963 10.8954 15.0301 10.667 12.2497C10.5497 10.8197 11.0719 9.47824 11.9853 8.48323C13.5307 6.79998 14.314 4.28019 13.9351 2.02671C13.9351 2.02647 13.9351 2.02576 13.9353 2.02482C13.9533 1.86115 14.1151 1.75235 14.2742 1.79422C17.798 2.71945 20.3074 7.58969 20.683 11.2502Z" fill="url(#paint26_linear)"/>
<path d="M21.5764 11.5219C21.5691 11.2935 21.5495 11.0636 21.5168 10.8332C21.5128 10.806 21.509 10.7788 21.505 10.7521C21.4993 10.7147 21.4932 10.6769 21.4866 10.6393C21.4804 10.6045 21.4745 10.5697 21.4683 10.5352L21.4669 10.526C21.4603 10.4915 21.4537 10.4565 21.4471 10.4212L21.4468 10.4191C21.4402 10.3872 21.4338 10.3548 21.4274 10.3226C21.4191 10.2798 21.4099 10.2367 21.4009 10.1937C21.3856 10.1223 21.3695 10.0501 21.3529 9.97823C21.3361 9.90491 21.3179 9.83041 21.2992 9.75638C21.29 9.71949 21.2806 9.68212 21.2704 9.64499C21.2534 9.57853 21.2354 9.51207 21.2165 9.44537C21.2127 9.43094 21.2089 9.41699 21.2049 9.4028C21.1945 9.36638 21.1841 9.33019 21.1734 9.29353C21.0994 9.03881 21.0164 8.78361 20.9253 8.52842C20.8995 8.45604 20.8733 8.38391 20.8461 8.31154C20.8454 8.30941 20.8444 8.30728 20.8437 8.30515C20.8172 8.23443 20.79 8.16419 20.7626 8.09347C20.7463 8.05256 20.73 8.0114 20.7134 7.97025C20.6864 7.9045 20.6592 7.83851 20.6318 7.77276C20.616 7.73468 20.6001 7.69661 20.5833 7.65853C20.5677 7.62258 20.5521 7.58639 20.5367 7.55021C20.5206 7.51449 20.5046 7.47807 20.4885 7.44188C20.4762 7.41468 20.4641 7.38749 20.4516 7.36029C20.4431 7.34184 20.4346 7.32339 20.426 7.30423C20.3811 7.20632 20.3347 7.10864 20.2874 7.01096C20.2702 6.97525 20.2527 6.93977 20.2349 6.90358C20.2177 6.86811 20.1995 6.83239 20.1812 6.79692C20.1661 6.76593 20.15 6.73519 20.1342 6.7042C20.0774 6.59304 20.019 6.48236 19.9592 6.37191C19.9402 6.33667 19.9208 6.30166 19.9015 6.26666C19.8821 6.23142 19.8627 6.19641 19.843 6.16165C19.8236 6.12617 19.8038 6.0914 19.7834 6.05664C19.7638 6.02187 19.7435 5.9871 19.7234 5.95233C19.5415 5.63967 19.3485 5.3322 19.1446 5.0316C19.1035 4.97034 19.0616 4.90979 19.0195 4.84948C18.6607 4.3346 18.2712 3.84171 17.8556 3.38027C17.8341 3.35639 17.8124 3.33226 17.7904 3.30885C17.7629 3.27857 17.7355 3.24854 17.7076 3.21874C17.6799 3.18917 17.652 3.1589 17.6243 3.12981C17.5971 3.10119 17.5704 3.07281 17.5427 3.04443C17.4857 2.98483 17.428 2.92617 17.3701 2.86752C17.3126 2.81028 17.2551 2.75328 17.1969 2.69699C17.1778 2.67831 17.1582 2.65986 17.1388 2.64118C17.1154 2.61823 17.0917 2.59577 17.0678 2.57401C17.0508 2.55769 17.0338 2.5416 17.016 2.52599C16.9888 2.49998 16.9611 2.47444 16.9332 2.44913C16.9039 2.42169 16.8739 2.39473 16.8438 2.36801C16.8143 2.34104 16.7845 2.31479 16.7544 2.28806C16.7216 2.25921 16.6884 2.23036 16.6551 2.2015C16.6315 2.1814 16.6076 2.16082 16.5839 2.14048C16.5501 2.11186 16.5163 2.08348 16.4822 2.0551C16.4515 2.02956 16.4207 2.00449 16.3897 1.97942C16.3628 1.95742 16.3356 1.93566 16.3086 1.91367C16.2738 1.88599 16.2391 1.85856 16.2041 1.83136C16.1766 1.8096 16.1487 1.78832 16.1213 1.76679C15.9612 1.64404 15.7989 1.5265 15.6348 1.41439C15.6029 1.39287 15.5709 1.37135 15.539 1.34959C15.4383 1.28218 15.3363 1.2169 15.2341 1.15376C15.202 1.13389 15.17 1.11402 15.1376 1.09486C14.8772 0.937821 14.6116 0.794022 14.3423 0.665359C14.3082 0.648804 14.2741 0.632957 14.2396 0.617111C14.0428 0.526054 13.8442 0.443039 13.6434 0.368774C13.6095 0.355766 13.5762 0.343704 13.5421 0.331642C13.5142 0.321472 13.4863 0.311775 13.4579 0.302078C13.4028 0.283157 13.3473 0.264709 13.2919 0.247207C13.2631 0.237747 13.234 0.228523 13.2049 0.219772C13.1394 0.199668 13.0736 0.180748 13.0076 0.162536C12.9785 0.154495 12.9497 0.146453 12.9208 0.139122C12.8953 0.132263 12.8695 0.12564 12.8435 0.119018C12.821 0.113342 12.7985 0.107902 12.7758 0.102462C12.7489 0.09584 12.7214 0.0894542 12.694 0.0830684C12.6718 0.0781016 12.6491 0.0726619 12.6264 0.0679317C12.5476 0.0506664 12.4681 0.0345835 12.3884 0.0201563C12.3582 0.0142436 12.3274 0.00904034 12.2967 0.00360056C12.2945 0.00360056 12.2917 0.00312753 12.2896 0.00265451C12.2851 0.00194497 12.2806 0.00123544 12.2761 0.000525904C12.1883 -0.00633294 12.0597 0.053741 12.0949 0.189972C12.0871 0.219535 12.089 0.255012 12.1058 0.296875C12.4133 1.06861 12.5741 1.8737 12.5959 2.67571C12.6235 4.44363 11.9745 6.19097 10.7208 7.52561C10.6014 7.65262 10.4869 7.78435 10.3781 7.92011C10.086 8.28528 9.83388 8.68073 9.62693 9.09959C9.61582 9.12159 9.60494 9.14382 9.59477 9.16605C9.52807 9.30465 9.46658 9.44537 9.41076 9.58846C9.40106 9.61235 9.3916 9.63671 9.38262 9.66107C9.37221 9.68803 9.36228 9.71547 9.35234 9.7429C9.34194 9.77057 9.33248 9.79801 9.32302 9.82568C9.31308 9.85312 9.30409 9.88103 9.29463 9.9087C9.28565 9.93661 9.27666 9.96428 9.26767 9.99242C9.25987 10.0165 9.25253 10.0404 9.2452 10.0646C9.23574 10.0963 9.22605 10.1284 9.21706 10.1608C9.20878 10.1887 9.20121 10.2166 9.19364 10.2453C9.18608 10.2736 9.17851 10.302 9.17118 10.3304C9.16219 10.3661 9.15344 10.4018 9.14516 10.4373C9.13996 10.4588 9.13499 10.4803 9.13026 10.5021C9.12009 10.5475 9.11016 10.5932 9.10117 10.6388C9.09667 10.6608 9.09242 10.6821 9.08863 10.7038C9.08319 10.7301 9.07846 10.7564 9.07397 10.7826C9.04157 10.9673 9.01744 11.1542 9.00231 11.3424C9.00041 11.364 8.99876 11.3852 8.9971 11.4065C8.99379 11.4569 8.99072 11.5075 8.98859 11.5579C8.98717 11.5853 8.98646 11.6128 8.98528 11.6397C8.98244 11.7327 8.98149 11.8256 8.98291 11.9188C8.98315 11.9339 8.98386 11.9493 8.98433 11.9645C8.98433 11.9753 8.98409 11.9862 8.98433 11.9969C8.9848 12.0297 8.98622 12.0626 8.98717 12.0955C8.98646 12.337 8.64565 12.407 8.55648 12.1747C8.34835 11.6314 8.16671 10.9238 8.17972 10.1249C8.18303 9.921 7.90229 9.86305 7.8285 10.053C7.52529 10.8311 7.25094 12.1097 7.65064 13.8024C8.188 16.0779 10.3951 18.3848 14.8616 18.1698C15.3214 18.2006 15.7918 18.1814 16.2663 18.1069C16.456 18.0769 16.6416 18.0392 16.824 17.9936C16.9264 17.9676 17.0283 17.9394 17.1288 17.9085C17.1553 17.9004 17.1818 17.8921 17.2083 17.8836C19.2246 17.2377 20.7257 15.6171 21.3115 13.6508C21.3186 13.6259 21.326 13.6011 21.3328 13.5768C21.3371 13.5616 21.3416 13.5465 21.3458 13.5311C21.3487 13.5188 21.3522 13.507 21.3558 13.4949C21.3626 13.4701 21.3688 13.445 21.3756 13.4202C21.3815 13.3951 21.3879 13.37 21.3943 13.3452C21.4005 13.3201 21.4064 13.2951 21.4123 13.27C21.5249 12.7859 21.5819 12.2837 21.5793 11.7726C21.5797 11.6892 21.579 11.6059 21.5764 11.5219Z" fill="url(#paint27_linear)"/>
</svg>
